<svg width="35" height="35" viewBox="0 0 35 35" fill="none" xmlns="http://www.w3.org/2000/svg">
<path d="M22.8348 21.7299C23.3588 21.9046 23.9251 21.6214 24.0997 21.0975C24.2744 20.5735 23.9912 20.0072 23.4673 19.8326L22.8348 21.7299ZM18.2292 19.1406H17.2292C17.2292 19.5711 17.5046 19.9532 17.9129 20.0893L18.2292 19.1406ZM19.2292 12.2804C19.2292 11.7281 18.7815 11.2804 18.2292 11.2804C17.6769 11.2804 17.2292 11.7281 17.2292 12.2804H19.2292ZM23.4673 19.8326L18.5454 18.1919L17.9129 20.0893L22.8348 21.7299L23.4673 19.8326ZM19.2292 19.1406V12.2804H17.2292V19.1406H19.2292ZM30.3542 17.5C30.3542 24.1965 24.9256 29.625 18.2292 29.625V31.625C26.0302 31.625 32.3542 25.301 32.3542 17.5H30.3542ZM18.2292 29.625C11.5327 29.625 6.10417 24.1965 6.10417 17.5H4.10417C4.10417 25.301 10.4281 31.625 18.2292 31.625V29.625ZM6.10417 17.5C6.10417 10.8035 11.5327 5.375 18.2292 5.375V3.375C10.4281 3.375 4.10417 9.69898 4.10417 17.5H6.10417ZM18.2292 5.375C24.9256 5.375 30.3542 10.8035 30.3542 17.5H32.3542C32.3542 9.69898 26.0302 3.375 18.2292 3.375V5.375Z" fill="black"/>
</svg>
