<svg width="35" height="35" viewBox="0 0 35 35" fill="none" xmlns="http://www.w3.org/2000/svg">
<path d="M17.5 30.625C24.7487 30.625 30.625 24.7487 30.625 17.5C30.625 10.2513 24.7487 4.375 17.5 4.375M17.5 30.625C10.2513 30.625 4.375 24.7487 4.375 17.5C4.375 10.2513 10.2513 4.375 17.5 4.375M17.5 30.625C14.3287 30.625 11.7578 24.7487 11.7578 17.5C11.7578 10.2513 14.3287 4.375 17.5 4.375M17.5 30.625C20.6713 30.625 23.2422 24.7487 23.2422 17.5C23.2422 10.2513 20.6713 4.375 17.5 4.375M6.83594 23.8794C9.24047 22.5024 13.2354 21.6016 17.7572 21.6016C22.4765 21.6016 26.6219 22.5829 28.9844 24.0625M6.83594 11.1206C9.24047 12.4976 13.2354 13.3984 17.7572 13.3984C22.4765 13.3984 26.6219 12.4171 28.9844 10.9375" stroke="black" stroke-width="2"/>
</svg>
