<svg width="35" height="35" viewBox="0 0 35 35" fill="none" xmlns="http://www.w3.org/2000/svg" stroke="black">
<path fill-rule="evenodd" clip-rule="evenodd" d="M5.551 9.051C6.86369 7.7387 8.64385 7.00149 10.5 7.00149C12.3561 7.00149 14.1363 7.7387 15.449 9.051L17.5 11.1002L19.551 9.051C20.1967 8.38243 20.9691 7.84915 21.8232 7.48229C22.6772 7.11543 23.5957 6.92232 24.5252 6.91425C25.4546 6.90617 26.3764 7.08328 27.2367 7.43525C28.0969 7.78721 28.8785 8.30699 29.5358 8.96423C30.193 9.62148 30.7128 10.403 31.0647 11.2633C31.4167 12.1236 31.5938 13.0454 31.5857 13.9748C31.5777 14.9043 31.3846 15.8228 31.0177 16.6768C30.6508 17.5309 30.1176 18.3033 29.449 18.949L17.5 30.8997L5.551 18.949C4.2387 17.6363 3.5015 15.8561 3.5015 14C3.5015 12.1439 4.2387 10.3637 5.551 9.051V9.051Z"  stroke-width="2" stroke-linejoin="round"/>
</svg>
