<svg width="60" height="60" viewBox="0 0 50 50" fill="none" xmlns="http://www.w3.org/2000/svg">
<path d="M0 9C0 4.02944 4.02944 0 9 0H41C45.9706 0 50 4.02944 50 9V41C50 45.9706 45.9706 50 41 50H9C4.02944 50 0 45.9706 0 41V9Z" fill="#D92332"/>
<path d="M19 32.4277C26.6027 33.7123 35.2367 33.0553 39.5 29.7098C52.5697 43.318 36.1683 52.3569 19 32.4277Z" fill="white"/>
<path d="M5.50001 26C6 26.5 12.9183 31.4 19 32.4277M42 26C42 26 40.7656 28.7167 39.5 29.7098M19 32.4277C26.6027 33.7123 35.2367 33.0553 39.5 29.7098M19 32.4277C36.1683 52.3569 52.5697 43.318 39.5 29.7098" stroke="black" stroke-width="2"/>
</svg>
